<svg xmlns="http://www.w3.org/2000/svg" width="34" height="28" viewBox="0 0 34 28" fill="none">
  <path d="M12.9966 11.0324C12.5769 10.9606 12.1552 10.9268 11.7491 11.0324C11.7398 10.996 11.7358 10.9582 11.7378 10.9206L11.7542 6.03335C12.0863 6.10231 12.5179 6.10231 12.921 6.02002L12.9262 6.26228L12.9966 10.9357V11.0324Z" fill="#B8B8B8"/>
  <path d="M28.7589 15.8747L25.1026 18.1001C25.134 18.0909 25.0759 18.1192 25.1026 18.1001C25.0014 17.709 24.8437 17.3513 24.6045 17.0313L28.257 14.7903C28.2238 14.7903 28.284 14.7731 28.257 14.7903C28.3621 15.1817 28.5123 15.5596 28.7589 15.8747Z" fill="#B8B8B8"/>
  <path d="M20.1474 7.03668C19.8906 7.33539 19.6916 7.68256 19.5611 8.05939L14.4438 5.13697C14.7111 4.84069 14.9024 4.44745 15.0417 4.06821L20.1004 6.98201C20.1189 6.99738 20.1347 7.01593 20.1474 7.03668Z" fill="#B8B8B8"/>
  <path d="M10.8379 22.3269C10.4968 22.5297 10.1995 22.8031 9.96445 23.1304C9.96445 23.1304 9.93514 23.1304 9.91749 23.0875L4.43615 16.6844C4.42058 16.669 4.40865 16.6505 4.40112 16.6294C4.74225 16.4266 5.03954 16.1533 5.27456 15.826C5.27456 15.826 5.27456 15.826 5.32152 15.8688L10.8086 22.266C10.8229 22.2836 10.833 22.3043 10.8379 22.3269Z" fill="#B8B8B8"/>
  <path d="M20.9022 16.2039C20.5537 16.3869 20.337 16.5879 20.0887 16.8589L14.0367 6.94084C14.0199 6.91809 13.4146 5.86098 13.4146 5.86098C13.8443 5.65412 13.9526 5.55069 14.2515 5.30936L17.5768 10.6532L20.9022 16.2039Z" fill="#B8B8B8"/>
  <path d="M12.9643 21.9932C12.5445 21.9214 12.0952 21.9001 11.7054 21.9862C11.7054 21.9862 11.7035 21.9376 11.7054 21.9001L11.7299 16.9994C12.062 17.0684 12.4856 17.0817 12.8887 16.9994L12.8939 17.2417L12.9643 21.9151V21.9932Z" fill="#B8B8B8"/>
  <path d="M28.7589 12.1252C28.5198 12.4451 28.3444 12.8115 28.243 13.2026C28.2118 13.1934 28.182 13.1791 28.155 13.16L24.6045 10.9635C24.8453 10.6467 25.0027 10.2844 25.1026 9.8947C25.0937 9.92918 25.1969 9.97144 25.224 9.98868L28.7236 12.1071L28.7589 12.1252Z" fill="#B8B8B8"/>
  <path d="M34 14.0001C34.0006 15.2991 33.2068 16.4552 32.0235 16.8786C30.8407 17.3017 29.5296 16.8985 28.7591 15.8747C28.5186 15.558 28.3431 15.1933 28.2432 14.8036C28.1025 14.2799 28.1025 13.7262 28.2432 13.2026C28.6328 11.7365 30.0046 10.794 31.4565 10.995C32.9084 11.1962 33.9943 12.4791 34 14.0001Z" fill="#52707C"/>
  <path d="M30.4828 14.6088C30.159 14.6088 29.8965 14.3362 29.8965 14.0001C29.8965 13.3278 30.4215 12.7826 31.069 12.7826C31.3928 12.7826 31.6553 13.0552 31.6553 13.3914C31.6553 13.7275 31.3928 14.0001 31.069 14.0001C31.069 14.3362 30.8065 14.6088 30.4828 14.6088Z" fill="#EBEBEB"/>
  <path d="M14.3533 22.7888C14.0935 22.5492 13.8359 22.3241 13.5474 22.2027L19.9337 11.4628C19.9444 11.4402 20.1169 11.1938 20.1169 11.1938C20.408 11.5093 20.6291 11.6485 20.9022 11.7909L17.8483 16.9968L14.3533 22.7888Z" fill="#B8B8B8"/>
  <path d="M20.1475 20.9634C20.126 20.9869 20.1 21.0058 20.0712 21.0181L15.0418 23.8921C14.9025 23.5131 14.7113 23.1883 14.4441 22.8923C14.4657 22.8685 14.4175 22.914 14.4773 22.8578L19.5577 19.9273C19.6969 20.3065 19.8803 20.6672 20.1475 20.9634Z" fill="#B8B8B8"/>
  <path d="M15.2406 24.9563C15.2406 26.2807 14.416 27.4528 13.2012 27.8555C11.986 28.2584 10.6599 27.7992 9.92059 26.7202C9.18155 25.6412 9.1992 24.1897 9.96443 23.1303C10.1984 22.8061 10.4936 22.5346 10.8322 22.3328C11.2799 22.0594 11.7896 21.9145 12.3093 21.9129C12.6805 21.9143 13.0481 21.9864 13.3939 22.126C13.7578 22.2773 14.0886 22.5031 14.3669 22.7894L14.4375 22.8624C14.7047 23.1586 14.9138 23.5059 15.0531 23.8851C15.1781 24.2271 15.2417 24.5902 15.2406 24.9563Z" fill="#52707C"/>
  <path d="M11.723 25.565C11.3993 25.565 11.137 25.2924 11.137 24.9563C11.137 24.284 11.6618 23.7391 12.3093 23.7391C12.633 23.7391 12.8955 24.0114 12.8955 24.3476C12.8955 24.6837 12.633 24.9563 12.3093 24.9563C12.3093 25.2924 12.047 25.565 11.723 25.565Z" fill="#EBEBEB"/>
  <path d="M10.8378 5.67324C10.8303 5.69399 10.8184 5.71284 10.8028 5.72792L5.31545 12.1252L5.27446 12.1739C5.04048 11.8496 4.74527 11.5784 4.40674 11.3766C4.41452 11.3559 4.42645 11.337 4.44201 11.3217L9.92906 4.92446L9.96435 4.86978C10.1994 5.19704 10.4967 5.47043 10.8378 5.67324Z" fill="#B8B8B8"/>
  <path d="M15.2406 3.04361C15.2417 3.40966 15.1781 3.77274 15.0531 4.11508C14.9138 4.49405 14.7047 4.8415 14.4375 5.13751L14.3669 5.2105C14.0886 5.49709 13.7578 5.7228 13.3939 5.87417C13.0481 6.01343 12.6805 6.08588 12.3093 6.08723C11.7923 6.08642 11.2846 5.94339 10.8379 5.67324C10.4968 5.47043 10.1994 5.19704 9.96443 4.86978C9.1992 3.81044 9.18155 2.35894 9.92059 1.27994C10.6599 0.200671 11.986 -0.258295 13.2012 0.144378C14.416 0.547319 15.2406 1.71951 15.2406 3.04361Z" fill="#52707C"/>
  <path d="M11.723 3.65235C11.3993 3.65235 11.137 3.37976 11.137 3.04362C11.137 2.37133 11.6618 1.82645 12.3093 1.82645C12.633 1.82645 12.8955 2.09875 12.8955 2.4349C12.8955 2.77104 12.633 3.04362 12.3093 3.04362C12.3093 3.37976 12.047 3.65235 11.723 3.65235Z" fill="#EBEBEB"/>
  <path d="M9.48739 14.0001C9.48549 14.2045 9.50565 14.4087 9.54732 14.6088H5.83301C5.9136 14.2069 5.9136 13.7929 5.83301 13.3914H9.54732C9.50565 13.5915 9.48549 13.7954 9.48739 14.0001Z" fill="#B8B8B8"/>
  <path d="M5.86083 14.0001C5.86264 14.2045 5.84292 14.4087 5.8022 14.6088C5.7153 15.05 5.535 15.4659 5.27455 15.826C5.04056 16.1506 4.74535 16.4217 4.40682 16.6235C3.1754 17.3685 1.60595 17.0857 0.688157 15.9534C-0.229385 14.8208 -0.229385 13.167 0.688157 12.0344C1.60595 10.902 3.1754 10.6192 4.40682 11.3646C4.74639 11.5698 5.04186 11.8453 5.27455 12.1739C5.53708 12.5338 5.71944 12.9494 5.80791 13.3913C5.84682 13.5917 5.86446 13.7956 5.86083 14.0001Z" fill="#52707C"/>
  <path d="M2.3436 14.6088C2.01985 14.6088 1.75732 14.3362 1.75732 14.0001C1.75732 13.3278 2.28211 12.7826 2.92987 12.7826C3.25361 12.7826 3.51588 13.0552 3.51588 13.3914C3.51588 13.7275 3.25361 14.0001 2.92987 14.0001C2.92987 14.3362 2.66734 14.6088 2.3436 14.6088Z" fill="#EBEBEB"/>
  <path d="M19.989 11.0324L15.2075 13.6181C15.1411 13.2044 15.0747 12.9631 14.9419 12.6722L19.5241 10.1705C19.6237 10.4463 19.7897 10.7566 19.989 11.0324Z" fill="#B8B8B8"/>
  <path d="M25.2064 9.13056C25.2077 9.40209 25.1722 9.67245 25.1011 9.93399C25.0012 10.3238 24.8256 10.6885 24.5851 11.0052C24.0295 11.7432 23.1776 12.1742 22.2753 12.1739C21.9044 12.1725 21.5368 12.1003 21.1907 11.9609C20.827 11.8095 20.4961 11.584 20.2177 11.2975C20.1147 11.1908 20.0187 11.0769 19.9305 10.9565C19.6957 10.6303 19.5279 10.2572 19.4378 9.86104C19.3764 9.62267 19.3447 9.37727 19.3443 9.13056C19.3429 8.76449 19.4065 8.40145 19.5318 8.05938C19.6623 7.68255 19.8613 7.33538 20.118 7.03667C20.9396 6.10904 22.2271 5.80306 23.3555 6.26741C24.484 6.73177 25.2199 7.87031 25.2064 9.13056Z" fill="#52707C"/>
  <path d="M21.6891 9.73927C21.3654 9.73927 21.1028 9.4667 21.1028 9.13056C21.1028 8.45827 21.6279 7.91313 22.2753 7.91313C22.5991 7.91313 22.8616 8.1857 22.8616 8.52185C22.8616 8.85799 22.5991 9.13056 22.2753 9.13056C22.2753 9.4667 22.0128 9.73927 21.6891 9.73927Z" fill="#EBEBEB"/>
  <path d="M19.3528 18.5414L14.4106 16.1349C14.6431 15.8591 14.8193 15.5576 14.964 15.273L17.3053 16.4452L19.6127 17.6174C19.5131 17.8587 19.4192 18.1967 19.3528 18.5414Z" fill="#B8B8B8"/>
  <path d="M25.2064 18.8696C25.2069 20.1156 24.4757 21.2361 23.3607 21.6975C22.2457 22.1588 20.9725 21.868 20.1474 20.9635C19.8906 20.6648 19.6916 20.3176 19.5611 19.9408C19.426 19.6006 19.3523 19.2375 19.3443 18.8696C19.3434 18.625 19.373 18.3818 19.4321 18.145C19.5232 17.7461 19.6929 17.371 19.9305 17.0434C20.0203 16.9209 20.1183 16.8051 20.2234 16.6965C20.5019 16.4099 20.8327 16.1845 21.1967 16.0331C21.5412 15.8963 21.9067 15.8263 22.2753 15.826C23.5973 15.8276 24.7545 16.7474 25.1011 18.0721C25.1716 18.3315 25.2072 18.6 25.2064 18.8696Z" fill="#52707C"/>
  <path d="M21.6891 19.4783C21.3654 19.4783 21.1028 19.2057 21.1028 18.8696C21.1028 18.197 21.6279 17.6521 22.2753 17.6521C22.5991 17.6521 22.8616 17.9247 22.8616 18.2608C22.8616 18.597 22.5991 18.8696 22.2753 18.8696C22.2753 19.2057 22.0128 19.4783 21.6891 19.4783Z" fill="#EBEBEB"/>
  <path d="M15.2405 14.0001C15.2411 14.2444 15.2117 14.4878 15.1526 14.7243C15.0616 15.1232 14.8919 15.4985 14.6542 15.826C13.9629 16.7888 12.7909 17.2398 11.6622 16.9766C10.5335 16.7135 9.65956 15.7861 9.43073 14.6088C9.35187 14.2069 9.35187 13.7929 9.43073 13.3913C9.65956 12.214 10.5335 11.2864 11.6622 11.0235C12.7909 10.7604 13.9629 11.211 14.6542 12.1739C14.889 12.5003 15.0566 12.8731 15.1467 13.2696C15.2083 13.5077 15.2398 13.7533 15.2405 14.0001Z" fill="#52707C"/>
  <path d="M11.723 14.6088C11.3993 14.6088 11.137 14.3362 11.137 14.0001C11.137 13.3278 11.6618 12.7826 12.3093 12.7826C12.633 12.7826 12.8955 13.0552 12.8955 13.3914C12.8955 13.7275 12.633 14.0001 12.3093 14.0001C12.3093 14.3362 12.047 14.6088 11.723 14.6088Z" fill="#EBEBEB"/>
</svg>