<svg width="34" height="34" viewBox="0 0 34 34" fill="none" xmlns="http://www.w3.org/2000/svg">
  <path d="M8.4628 11.6237C7.39529 13.314 6.85549 15.284 6.91226 17.2823C6.96903 19.2807 7.6198 21.2168 8.78155 22.8437L9.64217 22.2275C8.61242 20.7735 8.03574 19.0475 7.9847 17.2665C7.93365 15.4856 8.41052 13.7293 9.3553 12.2187L8.4628 11.6237Z" fill="#CECECE"/>
  <path d="M10.9754 10.2744L10.2742 9.47749C9.99155 9.72557 9.72537 9.99175 9.47729 10.2744L10.2742 10.9756C10.4931 10.7275 10.7273 10.4933 10.9754 10.2744Z" fill="#D7D0AE"/>
  <path d="M16.4688 4.78125H17.4994L17.5312 3.71875C17.1859 3.71875 16.8141 3.71875 16.4688 3.71875V4.78125Z" fill="#52707C"/>
  <path d="M14.7845 3.90469C11.644 4.43789 8.79971 6.08208 6.77034 8.53744C4.74097 10.9928 3.66169 14.0958 3.72931 17.2805C3.79694 20.4653 5.00696 23.5196 7.13872 25.8866C9.27049 28.2536 12.182 29.7756 15.3423 30.175H15.4061V29.6438L15.4698 29.1125C12.564 28.7423 9.88791 27.3406 7.92905 25.1626C5.97019 22.9847 4.85895 20.1755 4.79779 17.2468C4.73663 14.3182 5.72962 11.465 7.59584 9.2072C9.46207 6.94936 12.0773 5.4371 14.9651 4.94594L14.7845 3.90469Z" fill="#CECECE"/>
  <path d="M16.9999 32.4062C14.5534 32.4067 12.142 31.8245 9.96523 30.7078C7.78846 29.5912 5.90892 27.9722 4.48215 25.9848C3.05539 23.9975 2.12242 21.6989 1.76046 19.2794C1.39851 16.8598 1.61797 14.3888 2.40069 12.071C3.18341 9.75307 4.50688 7.65492 6.26157 5.95013C8.01626 4.24534 10.1517 2.98295 12.4912 2.26742C14.8307 1.55188 17.307 1.40379 19.7151 1.83539C22.1232 2.26699 24.3939 3.26587 26.3393 4.74937L26.9874 3.91C24.1243 1.70867 20.6114 0.52025 16.9999 0.531249C14.3475 0.529775 11.7341 1.16894 9.38178 2.39439C7.0295 3.61984 5.008 5.3953 3.48923 7.56977C1.97045 9.74423 0.999351 12.2534 0.658516 14.8837C0.317682 17.5141 0.617201 20.1878 1.5316 22.6776C2.44599 25.1673 3.94821 27.3994 5.91047 29.1839C7.87273 30.9684 10.237 32.2526 12.8021 32.9272C15.3672 33.6018 18.0574 33.6468 20.6436 33.0585C23.2299 32.4702 25.6358 31.2659 27.6568 29.5481L26.9661 28.7406C24.1851 31.1078 20.652 32.4073 16.9999 32.4062V32.4062Z" fill="#CECECE"/>
  <path d="M30.0898 7.01251L29.2451 7.66063C31.1986 10.1913 32.3046 13.2734 32.406 16.4688H30.281C30.1676 13.4199 29.0041 10.5039 26.9875 8.2143C24.971 5.92474 22.2252 4.4023 19.2151 3.90469L19.0345 4.96719C21.7958 5.4206 24.3165 6.8121 26.1716 8.90718C28.0267 11.0023 29.1028 13.6728 29.2185 16.4688H27.0935C26.9574 13.8849 25.8341 11.4519 23.9557 9.67241C22.0773 7.89289 19.5873 6.90267 16.9998 6.90626C15.096 6.9021 13.2306 7.44216 11.6235 8.46282L12.2185 9.35532C13.6488 8.44954 15.3069 7.96869 16.9998 7.96876C19.3058 7.96476 21.5259 8.843 23.2051 10.4234C24.8843 12.0039 25.8954 14.1668 26.031 16.4688H22.8435V17.5313H32.9373C33.0782 17.5313 33.2133 17.4753 33.3129 17.3757C33.4126 17.276 33.4685 17.1409 33.4685 17C33.4795 13.3885 32.2911 9.87557 30.0898 7.01251V7.01251Z" fill="#CECECE"/>
  <path d="M29.0274 5.75344C28.7777 5.4825 28.4961 5.22219 28.2464 4.9725L27.5239 5.75875C27.7736 5.98188 28.0127 6.22625 28.2411 6.47594L29.0274 5.75344Z" fill="#D7D0AE"/>
  <path d="M28.4219 30.2812C29.4488 30.2812 30.2812 29.4488 30.2812 28.4219C30.2812 27.395 29.4488 26.5625 28.4219 26.5625C27.395 26.5625 26.5625 27.395 26.5625 28.4219C26.5625 29.4488 27.395 30.2812 28.4219 30.2812Z" fill="#52707C"/>
  <path d="M17 31.6094C18.0269 31.6094 18.8594 30.7769 18.8594 29.75C18.8594 28.7231 18.0269 27.8906 17 27.8906C15.9731 27.8906 15.1406 28.7231 15.1406 29.75C15.1406 30.7769 15.9731 31.6094 17 31.6094Z" fill="#D7D0AE"/>
  <path d="M10.3594 25.5C11.3863 25.5 12.2188 24.6675 12.2188 23.6406C12.2188 22.6137 11.3863 21.7812 10.3594 21.7812C9.33247 21.7812 8.5 22.6137 8.5 23.6406C8.5 24.6675 9.33247 25.5 10.3594 25.5Z" fill="#52707C"/>
  <line x1="14.3911" y1="13.4684" x2="16.8728" y2="13.4684" stroke="#D7D0AE" stroke-width="0.5" stroke-linecap="round"/>
  <line x1="12.9265" y1="13.4744" x2="13.5254" y2="13.4744" stroke="#52707C" stroke-width="0.5" stroke-linecap="round"/>
  <line x1="14.8682" y1="12.25" x2="19.8213" y2="12.25" stroke="#52707C" stroke-width="0.5" stroke-linecap="round"/>
  <line x1="17.8428" y1="13.4744" x2="18.8077" y2="13.4744" stroke="#CECECE" stroke-width="0.5" stroke-linecap="round"/>
  <line x1="12.9265" y1="12.25" x2="13.8915" y2="12.25" stroke="#CECECE" stroke-width="0.5" stroke-linecap="round"/>
  <line x1="16.6531" y1="20.8945" x2="17.618" y2="20.8945" stroke="#CECECE" stroke-width="0.5" stroke-linecap="round"/>
  <line x1="19.7517" y1="18.3418" x2="20.7167" y2="18.3418" stroke="#CECECE" stroke-width="0.5" stroke-linecap="round"/>
  <line x1="14.4172" y1="14.6958" x2="17.0553" y2="14.6958" stroke="#52707C" stroke-width="0.5" stroke-linecap="round"/>
  <line x1="15.6069" y1="17.1326" x2="19.3039" y2="17.1326" stroke="#52707C" stroke-width="0.5" stroke-linecap="round"/>
  <line x1="15.9666" y1="19.5754" x2="19.1276" y2="19.5754" stroke="#52707C" stroke-width="0.5" stroke-linecap="round"/>
  <line x1="15.6069" y1="15.9112" x2="17.4605" y2="15.9112" stroke="#CECECE" stroke-width="0.5" stroke-linecap="round"/>
  <line x1="18.4312" y1="15.9112" x2="21.3632" y2="15.9112" stroke="#52707C" stroke-width="0.5" stroke-linecap="round"/>
  <line x1="18.0259" y1="14.6958" x2="20.0886" y2="14.6958" stroke="#D7D0AE" stroke-width="0.5" stroke-linecap="round"/>
  <line x1="12.7827" y1="20.8945" x2="15.5254" y2="20.8945" stroke="#D7D0AE" stroke-width="0.5" stroke-linecap="round"/>
  <line x1="14.4172" y1="18.354" x2="18.7812" y2="18.354" stroke="#D7D0AE" stroke-width="0.5" stroke-linecap="round"/>
  <line x1="12.75" y1="19.5601" x2="14.8651" y2="19.5601" stroke="#CECECE" stroke-width="0.5" stroke-linecap="round"/>
</svg>
