<svg xmlns="http://www.w3.org/2000/svg" width="9" height="6" viewBox="0 0 9 6" fill="none">
  <path d="M4.30672 5.23564L7.87622 1.95086C7.95884 1.87488 8.00453 1.77328 8.00484 1.66481C8.00516 1.55633 7.96005 1.45447 7.87786 1.37802L7.61645 1.13461C7.44611 0.976222 7.16852 0.975424 6.99753 1.13283L4.00008 3.89115L1.01524 1.11256C0.933055 1.03611 0.823323 0.993719 0.706186 0.993382C0.588919 0.993045 0.478945 1.03481 0.396256 1.11078L0.133513 1.35268C0.050888 1.42872 0.00519793 1.53026 0.00488603 1.63873C0.00457412 1.74721 0.0496793 1.84907 0.131866 1.92552L3.68566 5.23386C3.7681 5.31049 3.87835 5.35276 3.99569 5.35286C4.11347 5.35344 4.2239 5.3118 4.30672 5.23564Z" fill="#52707C"/>
</svg>
