<svg xmlns="http://www.w3.org/2000/svg" width="27" height="30" viewBox="0 0 27 30" fill="none">
  <path d="M22.8429 0H5.96428C3.99219 0.000864955 2.39353 1.54935 2.39286 3.45982V4.95446H0.714286C0.319643 4.95446 0 5.26433 0 5.64643C0 6.02852 0.319643 6.33839 0.714286 6.33839H2.38549V10.8777H0.714286C0.319643 10.8777 0 11.1873 0 11.5696C0 11.9517 0.319643 12.2616 0.714286 12.2616H2.38549V16.8009H0.714286C0.319643 16.8009 0 17.1108 0 17.4929C0 17.8752 0.319643 18.1848 0.714286 18.1848H2.38549V22.7241H0.714286C0.319643 22.7241 0 23.034 0 23.4161C0 23.7982 0.319643 24.108 0.714286 24.108H2.38549V25.6027C2.38638 27.5131 3.98482 29.0616 5.95692 29.0625H22.8355C24.8076 29.0616 26.4065 27.5131 26.4069 25.6027V3.45982C26.4098 1.55065 24.8136 0.00129743 22.8429 0V0ZM24.9857 25.6027C24.9821 26.7477 24.0248 27.6753 22.8429 27.6786H5.96428C4.78236 27.6753 3.82478 26.7477 3.82143 25.6027V24.108H5.49263C5.88728 24.108 6.20692 23.7982 6.20692 23.4161C6.20692 23.034 5.88728 22.7241 5.49263 22.7241H3.82143V18.1848H5.49263C5.88728 18.1848 6.20692 17.8752 6.20692 17.4929C6.20692 17.1108 5.88728 16.8009 5.49263 16.8009H3.82143V12.2616H5.49263C5.88728 12.2616 6.20692 11.9517 6.20692 11.5696C6.20692 11.1873 5.88728 10.8777 5.49263 10.8777H3.82143V6.33839H5.49263C5.88728 6.33839 6.20692 6.02852 6.20692 5.64643C6.20692 5.26433 5.88728 4.95446 5.49263 4.95446H3.82143V3.45982C3.82478 2.31484 4.78236 1.38717 5.96428 1.38393H22.8429C24.0248 1.38717 24.9821 2.31484 24.9857 3.45982V25.6027Z" fill="#52707C"/>
  <path d="M14.4001 14.3306C16.3132 14.3306 17.8643 12.8282 17.8643 10.9746C17.8643 9.12096 16.3132 7.61853 14.4001 7.61853C12.4867 7.61853 10.9358 9.12096 10.9358 10.9746C10.9376 12.8273 12.4874 14.3289 14.4001 14.3306V14.3306ZM14.4001 8.99554C15.5242 8.99554 16.4358 9.87866 16.4358 10.9676C16.4358 12.0566 15.5242 12.9397 14.4001 12.9397C13.2757 12.9397 12.3644 12.0566 12.3644 10.9676C12.3664 9.87952 13.2764 8.99749 14.4001 8.99554V8.99554Z" fill="#52707C"/>
  <path d="M14.4001 15.4446C11.4286 15.4446 9.09985 17.7766 9.09985 20.7589C9.10097 21.1406 9.42017 21.4498 9.81414 21.4509H18.9858C19.3798 21.4498 19.6989 21.1406 19.7001 20.7589C19.7001 17.7766 17.3713 15.4446 14.4001 15.4446V15.4446ZM10.5856 20.067C10.8929 18.1779 12.4286 16.8286 14.4001 16.8286C16.3713 16.8286 17.9144 18.1779 18.2144 20.067H10.5856Z" fill="#52707C"/>
</svg>