<svg xmlns="http://www.w3.org/2000/svg" width="29" height="28" viewBox="0 0 29 28" fill="none">
  <line x1="0.5" y1="-0.5" x2="9.97408" y2="-0.5" transform="matrix(-0.476833 0.878994 -0.852007 -0.52353 13.4849 4.25237)" stroke="#CECECE" stroke-linecap="round"/>
  <line x1="0.5" y1="-0.5" x2="9.97408" y2="-0.5" transform="matrix(-0.476833 0.878994 -0.852007 -0.52353 19.0605 15.1353)" stroke="#CECECE" stroke-linecap="round"/>
  <line x1="0.5" y1="-0.5" x2="9.97408" y2="-0.5" transform="matrix(-0.476833 0.878994 -0.852007 -0.52353 7.4917 15.1353)" stroke="#CECECE" stroke-linecap="round"/>
  <line x1="0.5" y1="-0.5" x2="9.99417" y2="-0.5" transform="matrix(0.444603 0.895728 -0.871675 0.490083 16.4399 5.0451)" stroke="#CECECE" stroke-linecap="round"/>
  <line x1="0.5" y1="-0.5" x2="9.99417" y2="-0.5" transform="matrix(0.444603 0.895728 -0.871675 0.490083 21.9199 15.7659)" stroke="#CECECE" stroke-linecap="round"/>
  <path d="M17.8487 3.24308C17.8492 3.50279 17.8199 3.76163 17.7608 4.01306C17.6699 4.43711 17.5004 4.83603 17.263 5.18422C16.5725 6.20782 15.4018 6.68722 14.2744 6.40742C13.147 6.1277 12.274 5.14185 12.0454 3.8902C11.9666 3.46299 11.9666 3.02288 12.0454 2.59596C12.274 1.34439 13.147 0.358243 14.2744 0.0787386C15.4018 -0.200985 16.5725 0.278049 17.263 1.30172C17.4976 1.64874 17.665 2.04502 17.7549 2.46651C17.8165 2.7197 17.8479 2.9808 17.8487 3.24308Z" fill="#52707C"/>
  <path d="M14.3351 3.8902C14.0118 3.8902 13.7498 3.60043 13.7498 3.24308C13.7498 2.52838 14.274 1.94884 14.9207 1.94884C15.2441 1.94884 15.5064 2.23861 15.5064 2.59596C15.5064 2.95331 15.2441 3.24308 14.9207 3.24308C14.9207 3.60043 14.6587 3.8902 14.3351 3.8902Z" fill="#F9F9F9"/>
  <path d="M11.8555 13.874C11.856 14.1337 11.8268 14.3926 11.7677 14.644C11.6767 15.068 11.5073 15.467 11.2699 15.8151C10.5793 16.8387 9.40863 17.3181 8.28125 17.0384C7.1538 16.7586 6.28082 15.7728 6.05224 14.5211C5.97347 14.0939 5.97347 13.6538 6.05224 13.2269C6.28082 11.9753 7.1538 10.9892 8.28125 10.7097C9.40863 10.4299 10.5793 10.909 11.2699 11.9327C11.5044 12.2797 11.6718 12.6759 11.7618 13.0974C11.8234 13.3506 11.8548 13.6117 11.8555 13.874Z" fill="#D7D0AE"/>
  <path d="M17.4312 24.7569C17.4317 25.0166 17.4024 25.2755 17.3433 25.5269C17.2524 25.951 17.083 26.3499 16.8456 26.6981C16.155 27.7217 14.9843 28.2011 13.8569 27.9213C12.7295 27.6415 11.8565 26.6557 11.6279 25.404C11.5492 24.9768 11.5492 24.5367 11.6279 24.1098C11.8565 22.8582 12.7295 21.8721 13.8569 21.5926C14.9843 21.3129 16.155 21.7919 16.8456 22.8156C17.0801 23.1626 17.2475 23.5589 17.3374 23.9803C17.3991 24.2335 17.4304 24.4946 17.4312 24.7569Z" fill="#52707C"/>
  <path d="M5.86234 24.7569C5.86288 25.0166 5.8336 25.2755 5.77449 25.5269C5.68358 25.951 5.51411 26.3499 5.27672 26.6981C4.58616 27.7217 3.41547 28.2011 2.28808 27.9213C1.16063 27.6415 0.287658 26.6557 0.0590773 25.404C-0.0196924 24.9768 -0.0196924 24.5367 0.0590773 24.1098C0.287658 22.8582 1.16063 21.8721 2.28808 21.5926C3.41547 21.3129 4.58616 21.7919 5.27672 22.8156C5.51127 23.1626 5.67864 23.5589 5.76859 23.9803C5.83021 24.2335 5.8616 24.4946 5.86234 24.7569Z" fill="#52707C"/>
  <path d="M8.34194 14.5211C8.01859 14.5211 7.75659 14.2314 7.75659 13.874C7.75659 13.1593 8.2808 12.5798 8.92756 12.5798C9.25091 12.5798 9.51319 12.8695 9.51319 13.2269C9.51319 13.5843 9.25091 13.874 8.92756 13.874C8.92756 14.2314 8.66556 14.5211 8.34194 14.5211Z" fill="#F9F9F9"/>
  <path d="M13.9176 25.404C13.5943 25.404 13.3323 25.1143 13.3323 24.7569C13.3323 24.0422 13.8565 23.4627 14.5032 23.4627C14.8266 23.4627 15.0889 23.7525 15.0889 24.1098C15.0889 24.4672 14.8266 24.7569 14.5032 24.7569C14.5032 25.1143 14.2412 25.404 13.9176 25.404Z" fill="#F9F9F9"/>
  <path d="M2.34878 25.404C2.02543 25.404 1.76343 25.1143 1.76343 24.7569C1.76343 24.0422 2.28763 23.4627 2.9344 23.4627C3.25775 23.4627 3.52002 23.7525 3.52002 24.1098C3.52002 24.4672 3.25775 24.7569 2.9344 24.7569C2.9344 25.1143 2.6724 25.404 2.34878 25.404Z" fill="#F9F9F9"/>
  <path d="M23.5201 13.9639C23.5206 14.2236 23.4913 14.4825 23.4322 14.7339C23.3413 15.1579 23.1718 15.5569 22.9344 15.905C22.2439 16.9287 21.0732 17.4081 19.9458 17.1283C18.8183 16.8485 17.9454 15.8627 17.7168 14.611C17.638 14.1838 17.638 13.7437 17.7168 13.3168C17.9454 12.0652 18.8183 11.0791 19.9458 10.7996C21.0732 10.5198 22.2439 10.9989 22.9344 12.0226C23.169 12.3696 23.3364 12.7659 23.4263 13.1873C23.4879 13.4405 23.5193 13.7016 23.5201 13.9639Z" fill="#D7D0AE"/>
  <path d="M29 24.6847C29.0006 24.9444 28.9713 25.2033 28.9122 25.4547C28.8213 25.8788 28.6518 26.2777 28.4144 26.6259C27.7239 27.6495 26.5532 28.1289 25.4258 27.8491C24.2983 27.5693 23.4254 26.5835 23.1968 25.3319C23.118 24.9046 23.118 24.4645 23.1968 24.0376C23.4254 22.786 24.2983 21.7999 25.4258 21.5204C26.5532 21.2407 27.7239 21.7197 28.4144 22.7434C28.649 23.0904 28.8163 23.4867 28.9063 23.9082C28.9679 24.1613 28.9993 24.4225 29 24.6847Z" fill="#52707C"/>
  <path d="M20.0065 14.611C19.6831 14.611 19.4211 14.3213 19.4211 13.9639C19.4211 13.2492 19.9453 12.6697 20.5921 12.6697C20.9155 12.6697 21.1777 12.9594 21.1777 13.3168C21.1777 13.6741 20.9155 13.9639 20.5921 13.9639C20.5921 14.3213 20.3301 14.611 20.0065 14.611Z" fill="#F9F9F9"/>
  <path d="M25.4865 25.3319C25.1631 25.3319 24.9011 25.0421 24.9011 24.6847C24.9011 23.97 25.4253 23.3905 26.0721 23.3905C26.3954 23.3905 26.6577 23.6803 26.6577 24.0376C26.6577 24.395 26.3954 24.6847 26.0721 24.6847C26.0721 25.0421 25.8101 25.3319 25.4865 25.3319Z" fill="#F9F9F9"/>
</svg>