<svg viewBox="0 0 16 16" fill="none" xmlns="http://www.w3.org/2000/svg">
  <path fill-rule="evenodd" clip-rule="evenodd" d="M15.6449 0.790623C15.7732 1.15531 15.5816 1.55496 15.2169 1.68327L3.29701 5.87705L15.0996 10.0296C15.4643 10.1579 15.6559 10.5575 15.5276 10.9222C15.3993 11.2869 14.9996 11.4785 14.635 11.3502L0.962745 6.53991C0.598059 6.4116 0.406436 6.01195 0.534744 5.64727C0.61267 5.42578 0.790685 5.26813 1.00017 5.20721C1.02692 5.19372 1.05484 5.1818 1.08385 5.17159L14.7523 0.362621C15.117 0.234314 15.5166 0.425937 15.6449 0.790623ZM0.399933 14.7634C0.39998 14.3768 0.713419 14.0634 1.10002 14.0634L15.0834 14.0651C15.47 14.0652 15.7834 14.3786 15.7833 14.7652C15.7833 15.1518 15.4698 15.4652 15.0832 15.4651L1.09985 15.4634C0.713248 15.4634 0.399886 15.15 0.399933 14.7634Z" />
</svg>
