<svg viewBox="0 0 14 13" fill="none" xmlns="http://www.w3.org/2000/svg">
  <path d="M13.2528 6.51366C13.254 7.00839 13.1921 7.50145 13.0671 7.98041C12.8748 8.78821 12.5164 9.54812 12.0144 10.2114C10.554 12.1613 8.07831 13.0745 5.69419 12.5415C3.30991 12.0087 1.46379 10.1307 0.980402 7.74638C0.813824 6.93257 0.813824 6.09418 0.980402 5.28094C1.46379 2.89676 3.30991 1.01822 5.69419 0.485781C8.07831 -0.0470761 10.554 0.865454 12.0144 2.81549C12.5104 3.47654 12.8643 4.23142 13.0546 5.03434C13.1849 5.51664 13.2513 6.01403 13.2528 6.51366Z" />
  <path d="M5.82308 7.74638C5.13927 7.74638 4.58521 7.19439 4.58521 6.51366C4.58521 5.15219 5.69377 4.04822 7.06153 4.04822C7.74533 4.04822 8.29997 4.60021 8.29997 5.28094C8.29997 5.96167 7.74533 6.51366 7.06153 6.51366C7.06153 7.19439 6.50746 7.74638 5.82308 7.74638Z" fill="#F9F9F9"/>
</svg>
