<svg xmlns="http://www.w3.org/2000/svg" width="28" height="28" viewBox="0 0 28 28" fill="#52707C">
  <path d="M12.6092 15.2783C13.1749 14.9123 13.6872 14.4658 14.1311 13.9541L15.7315 14.9113L17.1887 12.2971L15.5915 11.3419C15.7946 10.6998 15.9141 10.0187 15.9365 9.31266L17.7535 8.98083L17.2472 6.00813L15.4305 6.33996C15.1794 5.69548 14.8426 5.0962 14.4341 4.55764L15.6217 3.09199L13.3891 1.15182L12.2025 2.61622C11.6229 2.29457 10.9953 2.05413 10.3339 1.90985V0H7.41947V1.90985C6.75797 2.05413 6.13036 2.29457 5.55075 2.61622L4.36425 1.15182L2.13162 3.09206L3.31906 4.55771C2.91063 5.09627 2.5738 5.69561 2.32273 6.34003L0.506017 6.0082L0 8.9809L1.81678 9.31273C1.83917 10.0188 1.95869 10.6998 2.16177 11.3421L0.56444 12.2972L2.02173 14.9114L3.6222 13.9544C4.06598 14.466 4.57828 14.9125 5.14399 15.2785L4.51224 17.076L7.25102 18.1082L7.8819 16.3132C8.20703 16.3608 8.53905 16.3861 8.87669 16.3861C9.21432 16.3861 9.54641 16.3609 9.87154 16.3132L10.5024 18.1084L13.241 17.0758L12.6092 15.2783ZM8.87655 12.9243C6.82428 12.9243 5.15462 11.1951 5.15462 9.06945C5.15462 6.94394 6.82428 5.21459 8.87655 5.21459C10.9288 5.21459 12.5985 6.94394 12.5985 9.06945C12.5985 11.1951 10.9289 12.9243 8.87655 12.9243Z" />
  <path d="M25.1365 17.545L23.8801 17.9659C23.6405 17.5347 23.3444 17.1442 23.0034 16.8043L23.7056 15.6437L21.9377 14.4965L21.236 15.6561C20.7945 15.4874 20.3268 15.3811 19.8439 15.3466L19.6617 13.9925L17.5954 14.2908L17.7776 15.6449C17.3224 15.8148 16.9002 16.0497 16.5201 16.337L15.5393 15.4201L14.1415 17.024L15.123 17.942C14.8849 18.3656 14.7034 18.8248 14.5869 19.3077L13.2671 19.2582L13.1917 21.4175L14.5114 21.467C14.5947 21.9654 14.7444 22.4357 14.9497 22.8704L13.9084 23.7111L15.1909 25.4153L16.2342 24.5731C16.5977 24.8904 17.0037 25.1544 17.4395 25.3562L17.1629 26.6955L19.2032 27.1469L19.4794 25.8097C19.7145 25.8104 19.9522 25.7938 20.1915 25.7594C20.4309 25.7249 20.6641 25.6728 20.8898 25.606L21.5085 26.8142L23.3517 25.8018L22.7323 24.5922C23.0986 24.2748 23.4189 23.9056 23.685 23.4975L24.9108 24.0124L25.6947 22.0099L24.4712 21.496C24.5537 21.0201 24.5734 20.5249 24.5223 20.0219L25.7789 19.6007L25.1365 17.545ZM19.8616 23.3051C18.4063 23.5149 17.0575 22.4598 16.8549 20.9528C16.6519 19.4457 17.6709 18.0485 19.1261 17.8388C20.5812 17.6286 21.9296 18.6839 22.1328 20.1911C22.3352 21.6981 21.3166 23.0948 19.8616 23.3051Z" />
  <path d="M27.951 10.0568L27.9999 8.35171L26.9581 8.31965C26.8928 7.94386 26.7761 7.57174 26.6048 7.21394L27.423 6.54447L26.4022 5.2062L25.5841 5.8754C25.2924 5.6243 24.9696 5.41958 24.6271 5.26505L24.8386 4.20642L23.2261 3.86053L23.0142 4.91847C22.6426 4.91903 22.2684 4.97365 21.9018 5.08546L21.4077 4.13511L19.9575 4.94402L20.4516 5.89451C20.1599 6.1497 19.9097 6.4438 19.7045 6.76449L18.7355 6.36502L18.1265 7.94995L19.0963 8.35005C19.0325 8.73138 19.02 9.12254 19.0619 9.51308L18.072 9.85218L18.5889 11.4719L19.5788 11.1329C19.7726 11.4781 20.0083 11.7834 20.2757 12.0468L19.7282 12.9654L21.1295 13.8617L21.6782 12.9415C22.0315 13.0727 22.402 13.1527 22.778 13.1778L22.9285 14.2477L24.5584 14.0011L24.4083 12.9326C24.5822 12.8664 24.7539 12.7866 24.9219 12.6929C25.0901 12.5993 25.2489 12.4944 25.3981 12.3806L26.1767 13.0986L27.2721 11.8249L26.4929 11.106C26.6797 10.7668 26.8188 10.4024 26.9076 10.0247L27.951 10.0568ZM24.0265 10.9705C23.0051 11.5401 21.7268 11.143 21.1771 10.0855C20.627 9.02783 21.0104 7.70362 22.0319 7.13433C23.0528 6.56461 24.331 6.96194 24.8811 8.0196C25.4307 9.07733 25.0476 10.4008 24.0265 10.9705Z" />
</svg>