<svg viewBox="0 0 21 25" fill="none" xmlns="http://www.w3.org/2000/svg">
  <path d="M0.971771 0.0905762H8.83252V24.323H0.971771V0.0905762Z" fill="#F9F9F9"/>
  <path d="M0.971771 0.0905762H8.83252V24.323H0.971771V0.0905762Z" fill="#F9F9F9"/>
  <path d="M0.971771 0.0905762H8.83252V24.323H0.971771V0.0905762Z" fill="#F9F9F9"/>
  <path d="M0.971771 0.0905762H8.83252V24.323H0.971771V0.0905762Z" fill="#F9F9F9"/>
  <path d="M0.971771 0.0905762H8.83252V24.323H0.971771V0.0905762Z" fill="#F9F9F9"/>
  <path d="M13.0249 0.0905762H20.8849V24.323H13.0249V0.0905762Z" fill="#F9F9F9"/>
  <path d="M13.0249 0.0905762H20.8849V24.323H13.0249V0.0905762Z" fill="#F9F9F9"/>
  <path d="M13.0249 0.0905762H20.8849V24.323H13.0249V0.0905762Z" fill="#F9F9F9"/>
  <path d="M13.0249 0.0905762H20.8849V24.323H13.0249V0.0905762Z" fill="#F9F9F9"/>
  <path d="M13.0249 0.0905762H20.8849V24.323H13.0249V0.0905762Z" fill="#F9F9F9"/>
</svg>
