<svg viewBox="0 0 36 32" fill="none" xmlns="http://www.w3.org/2000/svg">
  <path d="M34.7963 14.4092C34.1074 7.48417 28.7157 1.88179 21.9043 1.01895C12.9981 -0.113162 5.33102 6.83396 5.13823 15.6444L1.13791 15.601C0.915671 15.5986 0.794551 15.879 0.931388 16.0707L6.88988 24.4899C6.99253 24.6319 7.19393 24.6341 7.29963 24.4944L13.4393 16.2064C13.5803 16.0177 13.4583 15.7346 13.243 15.7323L9.24966 15.6889C9.41404 9.49874 14.6627 4.59643 20.8669 5.08638C26.2037 5.50352 30.4895 9.96682 30.7711 15.387C31.0699 21.1314 26.975 25.9687 21.6179 26.7841C20.623 26.9353 19.8912 27.8079 19.8802 28.8222C19.8665 30.083 20.9601 31.0811 22.1915 30.8972C29.8234 29.7542 35.6165 22.6811 34.7963 14.4092Z" fill="#F9F9F9"/>
</svg>

