<svg viewBox="0 0 13 11" fill="#3D3D3D" xmlns="http://www.w3.org/2000/svg">
  <path d="M12.7657 10.2176L9.32256 7.0895C9.98951 6.34105 10.3911 5.39 10.3911 4.35417C10.3911 1.95342 8.24093 0 5.5984 0C2.95588 0 0.805756 1.9534 0.805756 4.35415C0.805756 6.7549 2.9559 8.70833 5.59843 8.70833C6.73857 8.70833 7.7854 8.3435 8.60922 7.73758L12.0524 10.8657C12.1507 10.9551 12.2799 11 12.4091 11C12.5382 11 12.6674 10.9551 12.7657 10.8657C12.963 10.6865 12.963 10.3968 12.7657 10.2176ZM5.59843 7.79165C3.51184 7.79165 1.81475 6.24983 1.81475 4.35415C1.81475 2.45848 3.51184 0.916652 5.59843 0.916652C7.68501 0.916652 9.38211 2.45848 9.38211 4.35415C9.38211 6.24983 7.68499 7.79165 5.59843 7.79165Z" />
</svg>
